<!-- GoogleIcon.svg -->
<svg xmlns="http://www.w3.org/2000/svg" viewBox="0 0 533.5 544.3">
  <path fill="#4285F4" d="M533.5 278.2c0-18.5-1.5-36.6-4.4-54.3H272.1v104.1h145.2c-6.1 33.8-25.4 62.3-53.8 81.8v68h86.9c51-47.2 80.3-116.7 80.3-199.6z"/>
  <path fill="#34A853" d="M272.1 544.3c73.1 0 134.2-24.1 178.5-65.7l-86.9-68c-24.4 16.6-55.9 26-91.6 26-70.3 0-129.8-47.5-151.3-111.4H28.8v69.6c45 88.1 137.1 144.5 243.3 144.5z"/>
  <path fill="#FBBC05" d="M120.8 325.7c-11-32.9-11-68.5 0-101.4V154H28.8c-13.5 40.8-21.2 84.7-21.2 130.7s7.7 89.9 21.2 130.7l92 71.3c-13.7-39.9-21.4-83.2-21.4-130.7z"/>
  <path fill="#EA4335" d="M272.1 105.1c38.8-.8 75.3 13.7 103.4 38.3l76.5-76.5C405.2 13.1 339.2-.9 272.1 0 165.9 0 72.8 56.4 28.8 154l92 71.3c22.3-65.5 84.2-114.2 151.3-119.2z"/>
</svg>
